<svg width="16" height="16" viewBox="0 0 16 16" fill="none" xmlns="http://www.w3.org/2000/svg">
<path d="M12.8 8.79999H9.59999C9.37909 8.79999 9.19999 8.97909 9.19999 9.19999C9.19999 9.42089 9.37999 9.59999 9.59999 9.59999H12.8C13.0209 9.59999 13.2 9.42089 13.2 9.19999C13.2 8.97909 13.02 8.79999 12.8 8.79999ZM5.59999 7.99999C6.48374 7.99999 7.19999 7.28374 7.19999 6.39999C7.19999 5.51624 6.48249 4.79999 5.59999 4.79999C4.71749 4.79999 3.99999 5.51749 3.99999 6.39999C3.99999 7.28249 4.71749 7.99999 5.59999 7.99999ZM5.59999 5.59999C6.04099 5.59999 6.39999 5.95899 6.39999 6.39999C6.39999 6.84099 6.03999 7.19999 5.59999 7.19999C5.15999 7.19999 4.79999 6.83999 4.79999 6.39999C4.79999 5.95999 5.15999 5.59999 5.59999 5.59999ZM6.39999 8.79999H4.79999C3.69549 8.79999 2.79999 9.69549 2.79999 10.8C2.79999 11.02 2.97899 11.2 3.19999 11.2C3.42099 11.2 3.59999 11.0209 3.59999 10.8C3.59999 10.1375 4.13749 9.59999 4.79999 9.59999H6.39999C7.06274 9.59999 7.59999 10.1372 7.59999 10.8C7.59999 11.0209 7.77909 11.2 7.99999 11.2C8.22089 11.2 8.39999 11.0209 8.39999 10.8C8.39999 9.69499 7.50499 8.79999 6.39999 8.79999ZM13.6 2.39999H2.39999C1.51624 2.39999 0.799988 3.11624 0.799988 3.99999V12C0.799988 12.8837 1.51624 13.6 2.39999 13.6H13.6C14.4837 13.6 15.2 12.8837 15.2 12V3.99999C15.2 3.11624 14.4825 2.39999 13.6 2.39999ZM14.4 12C14.4 12.441 14.041 12.8 13.6 12.8H2.39999C1.95899 12.8 1.59999 12.441 1.59999 12V3.99999C1.59999 3.55899 1.95899 3.19999 2.39999 3.19999H13.6C14.041 3.19999 14.4 3.55899 14.4 3.99999V12ZM12.8 7.19999H9.59999C9.37909 7.19999 9.19999 7.37909 9.19999 7.59999C9.19999 7.82089 9.37999 7.99999 9.59999 7.99999H12.8C13.0209 7.99999 13.2 7.82089 13.2 7.59999C13.2 7.37909 13.02 7.19999 12.8 7.19999ZM12.8 5.59999H9.59999C9.37909 5.59999 9.19999 5.77909 9.19999 5.99999C9.19999 6.22089 9.37999 6.39999 9.59999 6.39999H12.8C13.0209 6.39999 13.2 6.22089 13.2 5.99999C13.2 5.77909 13.02 5.59999 12.8 5.59999Z" fill="#566574"/>
</svg>
