<svg width="16" height="16" viewBox="0 0 16 16" fill="none" xmlns="http://www.w3.org/2000/svg">
<path d="M12.8 3.20001H3.20001C2.31626 3.20001 1.60001 3.91626 1.60001 4.80001V11.2C1.60001 12.0838 2.31626 12.8 3.20001 12.8H12.8C13.6838 12.8 14.4 12.0838 14.4 11.2V4.80001C14.4 3.91626 13.6825 3.20001 12.8 3.20001ZM3.20001 4.00001H12.8C13.241 4.00001 13.6 4.35901 13.6 4.80001V5.70026L8.72001 9.36026C8.29501 9.67826 7.70426 9.67826 7.27926 9.36026L2.40001 5.70001V4.80001C2.40001 4.36001 2.75901 4.00001 3.20001 4.00001ZM13.6 11.2C13.6 11.641 13.241 12 12.8 12H3.20001C2.75901 12 2.40001 11.641 2.40001 11.2V6.67751L6.80001 10C7.15301 10.2653 7.57651 10.4005 8.00001 10.4005C8.42351 10.4005 8.84751 10.265 9.20001 10L13.6 6.67751V11.2Z" fill="#566574"/>
</svg>
