<svg width="16" height="16" viewBox="0 0 16 16" fill="none" xmlns="http://www.w3.org/2000/svg">
<path d="M8 4.79999C6.2325 4.79999 4.8 6.23249 4.8 7.99999C4.8 9.76749 6.23325 11.2 8 11.2C9.766 11.2 11.2 9.76699 11.2 8.00249C11.2 6.23499 9.7675 4.79999 8 4.79999ZM8 10.4C6.67675 10.4 5.6 9.32349 5.6 7.99999C5.6 6.67649 6.67675 5.59999 8 5.59999C9.3235 5.59999 10.4 6.67549 10.4 8.00024C10.4 9.32249 9.3025 10.4 8 10.4ZM15.1125 7.55249C13.7575 4.48749 11.0725 2.39999 8 2.39999C4.9275 2.39999 2.24225 4.48999 0.886724 7.55249C0.839074 7.68499 0.799999 7.87499 0.799999 7.99999C0.799999 8.12442 0.839049 8.31499 0.886724 8.42574C2.243 11.5125 4.9275 13.6 8 13.6C11.0725 13.6 13.7575 11.5105 15.1125 8.44749C15.16 8.31499 15.2 8.10249 15.2 7.99999C15.2 7.87499 15.16 7.68499 15.1125 7.55249ZM14.38 8.10499C13.1075 11 10.6625 12.8 8 12.8C5.3375 12.8 2.8925 11.0005 1.625 8.11749C1.6145 8.08999 1.60125 8.02249 1.5775 8.00499C1.57887 7.97634 1.59215 7.91042 1.59674 7.89592C2.892 4.97749 5.3375 3.19999 8 3.19999C10.6625 3.19999 13.1075 4.99949 14.375 7.88249C14.3849 7.90949 14.3981 7.97532 14.3995 7.99357C14.3975 8.02249 14.385 8.08999 14.38 8.10499Z" fill="#566574"/>
</svg>
