<svg width="16" height="16" viewBox="0 0 16 16" fill="none" xmlns="http://www.w3.org/2000/svg">
<path d="M13.2 6.39998H6.00001C5.86001 6.39998 5.72501 6.42998 5.60001 6.47248V3.19998C5.60001 2.75823 5.95826 2.39998 6.40001 2.39998H11.835L12.8 3.36573V5.19998C12.8 5.41998 12.98 5.59998 13.2 5.59998C13.42 5.59998 13.6 5.41998 13.6 5.19998V3.36573C13.6 3.15348 13.515 2.94998 13.365 2.79998L12.4 1.83435C12.2275 1.68425 12.0475 1.59998 11.835 1.59998H6.40001C5.51751 1.59998 4.80001 2.31623 4.80001 3.19998V4.87348C4.65251 4.82998 4.54001 4.79998 4.40001 4.79998H2.80001C2.13726 4.79998 1.60001 5.33748 1.60001 5.99998V13.2C1.60001 13.8625 2.13726 14.4 2.80001 14.4H4.40001C4.70876 14.4 4.98726 14.2801 5.20001 14.0885C5.41251 14.28 5.69251 14.4 6.00001 14.4H13.2C13.8628 14.4 14.4 13.8627 14.4 13.2V7.59998C14.4 6.93748 13.8625 6.39998 13.2 6.39998ZM4.80001 13.2C4.80001 13.42 4.62001 13.6 4.40001 13.6H2.80001C2.57951 13.6 2.40001 13.42 2.40001 13.2V5.99998C2.40001 5.77998 2.57951 5.59998 2.80001 5.59998H4.40001C4.62001 5.59998 4.80001 5.77998 4.80001 5.99998V13.2ZM13.6 13.2C13.6 13.4205 13.4206 13.6 13.2 13.6H6.00001C5.78001 13.6 5.60001 13.42 5.60001 13.2V7.59998C5.60001 7.37998 5.78001 7.19998 6.00001 7.19998H13.2C13.42 7.19998 13.6 7.37998 13.6 7.59998V13.2ZM8.40001 8.59998C8.06726 8.59998 7.80001 8.86723 7.80001 9.19998C7.80001 9.53273 8.06726 9.79998 8.40001 9.79998C8.73276 9.79998 9.00001 9.53273 9.00001 9.19998C9.00001 8.86723 8.73251 8.59998 8.40001 8.59998ZM8.40001 11C8.06726 11 7.80001 11.2672 7.80001 11.6C7.80001 11.9327 8.06726 12.2 8.40001 12.2C8.73276 12.2 9.00001 11.9327 9.00001 11.6C9.00001 11.2672 8.73251 11 8.40001 11ZM10.8 8.59998C10.4673 8.59998 10.2 8.86723 10.2 9.19998C10.2 9.53273 10.4673 9.79998 10.8 9.79998C11.1328 9.79998 11.4 9.53273 11.4 9.19998C11.4 8.86723 11.1325 8.59998 10.8 8.59998ZM10.8 11C10.4673 11 10.2 11.2672 10.2 11.6C10.2 11.9327 10.4673 12.2 10.8 12.2C11.1328 12.2 11.4 11.9327 11.4 11.6C11.4 11.2672 11.1325 11 10.8 11Z" fill="#566574"/>
</svg>
