<svg width="16" height="16" viewBox="0 0 16 16" fill="none" xmlns="http://www.w3.org/2000/svg">
<path d="M7.99998 1.59998C4.46498 1.59998 1.59998 4.46498 1.59998 7.99998C1.59998 11.535 4.46498 14.4 7.99998 14.4C11.535 14.4 14.4 11.535 14.4 7.99998C14.4 4.46498 11.535 1.59998 7.99998 1.59998ZM7.99998 4.79998C8.44173 4.79998 8.79998 5.15823 8.79998 5.59998C8.79998 6.04173 8.44173 6.39998 7.99998 6.39998C7.55823 6.39998 7.19998 6.04248 7.19998 5.59998C7.19998 5.15748 7.55748 4.79998 7.99998 4.79998ZM8.99998 11.2H6.99998C6.66998 11.2 6.39998 10.9325 6.39998 10.6C6.39998 10.2675 6.66873 9.99998 6.99998 9.99998H7.39998V8.39998H7.19998C6.86873 8.39998 6.59998 8.13123 6.59998 7.79998C6.59998 7.46873 6.86998 7.19998 7.19998 7.19998H7.99998C8.33123 7.19998 8.59998 7.46873 8.59998 7.79998V9.99998H8.99998C9.33122 9.99998 9.59998 10.2687 9.59998 10.6C9.59998 10.9312 9.33248 11.2 8.99998 11.2Z" fill="#A3ACB6"/>
</svg>
