<svg width="16" height="16" viewBox="0 0 16 16" fill="none" xmlns="http://www.w3.org/2000/svg">
<path d="M8.00001 1.60001C5.34926 1.60001 3.20001 3.74926 3.20001 6.40001C3.20001 8.33526 3.87426 8.87576 7.50751 14.1425C7.62501 14.315 7.81251 14.4 8.00001 14.4C8.18751 14.4 8.37376 14.314 8.49301 14.142C12.125 8.87501 12.8 8.33501 12.8 6.40001C12.8 3.74926 10.65 1.60001 8.00001 1.60001ZM8.00001 13.4475C4.49826 8.38501 4.00001 7.97751 4.00001 6.40001C4.00001 4.19451 5.79451 2.40001 8.00001 2.40001C10.2055 2.40001 12 4.19451 12 6.40001C12 7.99751 11.515 8.36751 8.00001 13.4475ZM9.71751 5.18251L7.33251 7.56751L6.28251 6.51751C6.12626 6.36126 5.87301 6.36126 5.71701 6.51751C5.56101 6.67376 5.56076 6.92701 5.71701 7.08301L7.05026 8.41651C7.12526 8.49151 7.22681 8.53371 7.33301 8.53371C7.43921 8.53371 7.54081 8.49151 7.61576 8.41651L10.2833 5.74901C10.4395 5.59276 10.4395 5.33951 10.2833 5.18351C10.127 5.02751 9.87251 5.02751 9.71751 5.18251Z" fill="#566574"/>
</svg>
