<svg width="16" height="16" viewBox="0 0 16 16" fill="none" xmlns="http://www.w3.org/2000/svg">
<path d="M7.99999 7.99998C9.76749 7.99998 11.2 6.56723 11.2 4.79998C11.2 3.03273 9.76749 1.59998 7.99999 1.59998C6.23249 1.59998 4.79999 3.03273 4.79999 4.79998C4.79999 6.56723 6.23249 7.99998 7.99999 7.99998ZM7.99999 2.39998C9.32349 2.39998 10.4 3.47648 10.4 4.79998C10.4 6.12323 9.32349 7.19998 7.99999 7.19998C6.67649 7.19998 5.59999 6.12248 5.59999 4.79998C5.59999 3.47648 6.67749 2.39998 7.99999 2.39998ZM9.26749 9.19998H6.73249C4.34024 9.19998 2.39999 11.14 2.39999 13.5325C2.39999 14.011 2.78799 14.3992 3.26649 14.3992H12.734C13.2125 14.4 13.6 14.0125 13.6 13.5325C13.6 11.14 11.66 9.19998 9.26749 9.19998ZM12.7325 13.6H3.26649C3.22999 13.6 3.19999 13.57 3.19999 13.5325C3.19999 11.585 4.78499 9.99998 6.73249 9.99998H9.26499C11.215 9.99998 12.8 11.585 12.8 13.5325C12.8 13.57 12.77 13.6 12.7325 13.6Z" fill="#566574"/>
</svg>
