<svg width="16" height="16" viewBox="0 0 16 16" fill="none" xmlns="http://www.w3.org/2000/svg">
<path d="M13.715 9.86499L11.17 8.77349C10.7075 8.58129 10.165 8.71411 9.85126 9.10049L9.02276 10.1122C7.70501 9.39499 6.60751 8.29749 5.89001 6.97998L6.90301 6.15023C7.29476 5.82723 7.42376 5.29623 7.22401 4.82923L6.13501 2.28423C5.91751 1.78195 5.37001 1.50655 4.84001 1.62883L2.47926 2.17648C1.96176 2.29448 1.60001 2.74748 1.60001 3.27798C1.60001 9.40999 6.59001 14.4 12.7225 14.4C13.2533 14.4 13.7078 14.039 13.8268 13.5217L14.3718 11.16C14.4925 10.6275 14.2175 10.0825 13.715 9.86499ZM13.0475 13.3425C13.0131 13.4917 12.8764 13.6002 12.723 13.6002C7.03051 13.6002 2.40051 8.97024 2.40051 3.27773C2.40051 3.12303 2.50636 2.99073 2.65901 2.95573L5.01926 2.40798C5.04426 2.40212 5.06926 2.39938 5.09386 2.39938C5.22471 2.39938 5.34661 2.47673 5.40011 2.60016L6.48961 5.14266C6.54751 5.27998 6.51001 5.43748 6.39501 5.53248L5.13251 6.56748C4.99001 6.68498 4.94501 6.88498 5.02751 7.05248C5.86201 8.74774 7.25526 10.14 8.95001 10.975C9.11603 11.0578 9.31826 11.0133 9.43601 10.8695L10.4708 9.60701C10.5633 9.49294 10.7248 9.45544 10.8583 9.51091L13.3983 10.5999C13.5459 10.664 13.6272 10.8241 13.5912 10.9804L13.0475 13.3425Z" fill="#566574"/>
</svg>
